<svg width="25" height="24" viewBox="0 0 25 24" fill="none" xmlns="http://www.w3.org/2000/svg">
<path d="M12.4999 14.1699C10.3699 14.1699 8.62988 12.4399 8.62988 10.2999C8.62988 8.15994 10.3699 6.43994 12.4999 6.43994C14.6299 6.43994 16.3699 8.16994 16.3699 10.3099C16.3699 12.4499 14.6299 14.1699 12.4999 14.1699ZM12.4999 7.93994C11.1999 7.93994 10.1299 8.99994 10.1299 10.3099C10.1299 11.6199 11.1899 12.6799 12.4999 12.6799C13.8099 12.6799 14.8699 11.6199 14.8699 10.3099C14.8699 8.99994 13.7999 7.93994 12.4999 7.93994Z" fill="#231F20" fill-opacity="0.9"/>
<path d="M12.5002 22.76C11.0202 22.76 9.53018 22.2 8.37018 21.09C5.42018 18.25 2.16018 13.72 3.39018 8.33C4.50018 3.44 8.77018 1.25 12.5002 1.25C12.5002 1.25 12.5002 1.25 12.5102 1.25C16.2402 1.25 20.5102 3.44 21.6202 8.34C22.8402 13.73 19.5802 18.25 16.6302 21.09C15.4702 22.2 13.9802 22.76 12.5002 22.76ZM12.5002 2.75C9.59018 2.75 5.85018 4.3 4.86018 8.66C3.78018 13.37 6.74018 17.43 9.42018 20C11.1502 21.67 13.8602 21.67 15.5902 20C18.2602 17.43 21.2202 13.37 20.1602 8.66C19.1602 4.3 15.4102 2.75 12.5002 2.75Z" fill="#231F20" fill-opacity="0.9"/>
</svg>
